<?xml version="1.0" encoding="UTF-8" standalone="no"?>
<svg width="44px" height="38px" viewBox="0 0 44 38" version="1.1" xmlns="http://www.w3.org/2000/svg" xmlns:xlink="http://www.w3.org/1999/xlink">
    <!-- Generator: Sketch 3.7.1 (28215) - http://www.bohemiancoding.com/sketch -->
    <title>favorite</title>
    <desc>Created with Sketch.</desc>
    <defs></defs>
    <g id="icon-artboard" stroke="none" stroke-width="1" fill="none" fill-rule="evenodd">
        <g id="iOS-icon-kit" transform="translate(-1104.000000, -973.000000)" fill="#929292">
            <g id="Icon-sets">
                <g id="Camera-Icons" transform="translate(102.000000, 901.000000)">
                    <g id="SVGs" transform="translate(57.000000, 68.000000)">
                        <path d="M957,6 C951.47715,6 947,10.4771525 947,16 C947,17.5646458 947.35934,19.1812375 948,20.5 C948.41892,21.5472894 951.25268,25.1792327 955,28.9999999 C960.19797,34.299842 966.70946,40 967,40 L967,42 C966.5,42 962,38 962,38 C962,38 951,28.0000001 948,24 C946.13291,21.8846004 945,19.0433394 945,16 C945,9.372583 950.37258,4 957,4 C959.14661,4 961.24033,4.5889361 963.00054,5.5930004 C964.76074,6.5970647 966.18744,8.3394874 967,10 C968.62513,6.6789748 972.70677,4 977,4 C983.62742,4 989,9.372583 989,16 C989,19.0433394 987.86709,21.8846004 986,24 C983,28.0000001 972,38 972,38 C972,38 967.5,42 967,42 L967,40 C967.29054,40 973.80203,34.299842 979,28.9999999 C982.74732,25.1792327 985.58108,21.5472894 986,20.4999999 C986.64066,19.1812375 987,17.5646458 987,16 C987,10.4771525 982.52285,6 977,6 C971,6 967,14 967,14 C967,14 963.00054,6 957,6 Z" id="favorite"></path>
                    </g>
                </g>
            </g>
        </g>
    </g>
</svg>