<?xml version="1.0" encoding="UTF-8" standalone="no"?>
<svg width="58px" height="52px" viewBox="0 0 58 52" version="1.1" xmlns="http://www.w3.org/2000/svg" xmlns:xlink="http://www.w3.org/1999/xlink">
    <!-- Generator: Sketch 3.7.1 (28215) - http://www.bohemiancoding.com/sketch -->
    <title>message</title>
    <desc>Created with Sketch.</desc>
    <defs></defs>
    <g id="icon-artboard" stroke="none" stroke-width="1" fill="none" fill-rule="evenodd">
        <g id="iOS-icon-kit" transform="translate(-1843.000000, -451.000000)" fill="#929292">
            <g id="Icon-sets">
                <g id="Leisure-Icons" transform="translate(1380.000000, 400.000000)">
                    <g id="SVGs" transform="translate(49.000000, 48.000000)">
                        <path d="M426.699384,42.4141142 C420.736407,38.7896561 416.761905,33.1182163 416.761905,26.2470274 C416.761905,14.1235166 429.156331,5.7349444 442.972225,5.7349444 C456.788119,5.7349444 469.238095,14.0202337 469.238095,26.2470274 C469.238095,38.4738211 456.809524,46.7591104 442.972225,46.7591104 C439.680148,46.7591104 436.470953,46.2842944 433.491543,45.3973307 C433.295702,49.9584572 429.707293,52.9127353 423.666667,52.9127353 C423.855003,52.9127351 427.017685,49.0875054 426.699384,42.4141142 L426.699384,42.4141142 L426.699384,42.4141142 Z M424.403236,44.1315107 C418.139175,39.9837715 414,33.7002682 414,26.2470274 C414,12.6878194 427.699104,3 442.969302,3 C458.239501,3 472,12.5723054 472,26.2470274 C472,39.9217494 458.239501,49.4940548 442.969302,49.4940548 C440.305605,49.4940548 437.689714,49.1992691 435.186003,48.6405707 C432.976317,53.922277 428.112861,55 419.872419,55 C419.872419,55 424.610533,49.910148 424.403236,44.1315107 L424.403236,44.1315107 L424.403236,44.1315107 Z" id="message"></path>
                    </g>
                </g>
            </g>
        </g>
    </g>
</svg>